<?xml version="1.0" encoding="utf-8"?>
<!-- Generator: Adobe Illustrator 25.2.1, SVG Export Plug-In . SVG Version: 6.00 Build 0)  -->
<svg version="1.1" id="Capa_1" xmlns="http://www.w3.org/2000/svg" xmlns:xlink="http://www.w3.org/1999/xlink" x="0px" y="0px"
	 viewBox="0 0 490 490" style="enable-background:new 0 0 490 490;" xml:space="preserve">
<g>
	<g>
		<path d="M448,289.5c-12,0-21.7,8.1-21.9,18.2l0,55.2h0c0.2,10,10,18.1,21.9,18.1c12,0,21.7-8.1,21.9-18.1h0l0-55.2
			C469.7,297.6,460,289.5,448,289.5z"/>
		<path d="M458,270.6l0-44.8l-20,11.8l0,33c3.2-0.7,6.6-1.1,10-1.1C451.4,269.5,454.7,269.9,458,270.6z"/>
	</g>
	<path d="M0,176.1c0,4.5,2.3,8.5,5.8,10.9l235.6,139.4c1.1,0.6,2.3,0.9,3.6,0.9c1.3,0,2.5-0.3,3.6-0.9L484.2,187
		c3.5-2.4,5.8-6.4,5.8-10.9s-2.3-8.5-5.8-10.9L248.6,25.4c-1.1-0.6-2.3-0.9-3.6-0.9c-1.3,0-2.6,0.3-3.6,0.9L5.8,165.2
		C2.3,167.6,0,171.6,0,176.1z"/>
	<path d="M231.2,343.7L93.9,262.4v115.4c24.4,51.5,82.8,87.7,151.1,87.7s126.7-36.3,151.1-87.7V262.4l-137.3,81.3l-0.4,0.2l-0.4,0.2
		c-4,2.1-8.5,3.2-13,3.2c-4.5,0-9-1.1-13-3.2l-0.4-0.2L231.2,343.7z"/>
</g>
</svg>
