<?xml version="1.0" encoding="iso-8859-1"?>
<!-- Generator: Adobe Illustrator 19.0.0, SVG Export Plug-In . SVG Version: 6.00 Build 0)  -->
<svg version="1.1" id="Capa_1" xmlns="http://www.w3.org/2000/svg" xmlns:xlink="http://www.w3.org/1999/xlink" x="0px" y="0px"
	 viewBox="0 0 513.342 513.342" style="enable-background:new 0 0 513.342 513.342;" xml:space="preserve">
<g>
	<g>
		<path d="M461.767,496.64L328.647,153.6c2.56-7.68,5.12-15.36,5.12-25.6v-25.6c0-12.8-10.24-25.6-25.6-25.6h-25.6V25.6
			c0-15.36-10.24-25.6-25.6-25.6s-25.6,10.24-25.6,25.6v51.2h-25.6c-15.36,0-25.6,10.24-25.6,25.6V128
			c0,10.24,2.56,17.92,5.12,28.16L52.167,496.64c-5.12,15.36,15.36,23.04,23.04,10.24l168.96-304.64c10.24,2.56,15.36,2.56,25.6,0
			l166.4,302.08C443.847,519.68,464.327,509.44,461.767,496.64z M256.967,166.4c-12.8,0-25.6-10.24-25.6-25.6s10.24-25.6,25.6-25.6
			s25.6,12.8,25.6,25.6C282.567,156.16,272.327,166.4,256.967,166.4z"/>
	</g>
</g>
<g>
</g>
<g>
</g>
<g>
</g>
<g>
</g>
<g>
</g>
<g>
</g>
<g>
</g>
<g>
</g>
<g>
</g>
<g>
</g>
<g>
</g>
<g>
</g>
<g>
</g>
<g>
</g>
<g>
</g>
</svg>
