<?xml version="1.0" encoding="utf-8"?>
<!-- Generator: Adobe Illustrator 25.2.1, SVG Export Plug-In . SVG Version: 6.00 Build 0)  -->
<svg version="1.1" id="Capa_1" xmlns="http://www.w3.org/2000/svg" xmlns:xlink="http://www.w3.org/1999/xlink" x="0px" y="0px"
	 viewBox="0 0 512 512" style="enable-background:new 0 0 512 512;" xml:space="preserve">
<g>
	<g>
		<path d="M151,390v15c0,20,13.2,36.8,31.3,42.6C188.3,483,219,512,256,512s67.7-29,73.7-64.4C347.8,441.8,361,425,361,405v-15H151z
			"/>
	</g>
</g>
<g>
	<g>
		<path d="M217.3,4C149.6,18.2,94.5,73.1,80.1,140.8c-12.2,57.6,2.9,115.4,41.3,158.6c15.5,17.5,25,38.6,28.1,60.6h212.9
			c3.2-21.9,13-43.3,29-61.6C420.2,265.7,437,223.6,437,180C437,65.8,331.3-19.9,217.3,4z M361,195c-8.3,0-15-6.7-15-15
			c0-49.6-40.4-90-90-90c-8.3,0-15-6.7-15-15s6.7-15,15-15c66.2,0,120,53.8,120,120C376,188.3,369.3,195,361,195z"/>
	</g>
</g>
</svg>
