<?xml version="1.0"?>
<svg xmlns="http://www.w3.org/2000/svg" xmlns:xlink="http://www.w3.org/1999/xlink" xmlns:svgjs="http://svgjs.com/svgjs" version="1.1" width="512" height="512" x="0" y="0" viewBox="0 0 512 512" style="enable-background:new 0 0 512 512" xml:space="preserve" class=""><g><g xmlns="http://www.w3.org/2000/svg"><path d="m479.867 339.862v-159.25l-30 10v149.25c-18.655 6.281-32.133 23.926-32.133 44.671v80.333c0 8.284 6.716 15 15 15h64.266c8.284 0 15-6.716 15-15v-80.333c0-20.745-13.478-38.39-32.133-44.671z" fill="#ffffff" data-original="#000000" style="" class=""/><path d="m241.775 250.492-145.375-48.458v102.166c0 3.979 1.581 7.794 4.394 10.607 41.462 41.457 96.585 64.289 155.213 64.289 58.629 0 113.747-22.832 155.2-64.291 2.813-2.813 4.393-6.628 4.393-10.605v-102.166l-145.37 48.457c-9.937 3.309-19.94 2.838-28.455.001z" fill="#ffffff" data-original="#000000" style="" class=""/><path d="m256 222.8c1.602 0 3.204-.257 4.743-.77l241-80.333c6.125-2.042 10.257-7.774 10.257-14.23s-4.131-12.188-10.257-14.23l-241-80.333c-3.078-1.025-6.408-1.025-9.486 0l-241 80.333c-6.126 2.041-10.257 7.773-10.257 14.23s4.131 12.188 10.257 14.23l241 80.333c1.539.513 3.141.77 4.743.77z" fill="#ffffff" data-original="#000000" style="" class=""/></g></g></svg>
