<svg xmlns="http://www.w3.org/2000/svg" viewBox="0 0 107.47 5.04"><defs><style>.cls-1{fill:none;stroke:#fff;stroke-miterlimit:10;}</style></defs><g id="Layer_2" data-name="Layer 2"><g id="Layer_1-2" data-name="Layer 1"><path class="cls-1" d="M.36,2.4A5.74,5.74,0,0,1,3.75.55c3.44-.38,4.77,3.67,8.47,4s4.41-4,8.47-4,4.75,4.05,8.61,4,4.62-4,8.47-4,4.51,4,8.33,4,4.35-3.86,8.19-4,4.86,4.11,8.89,4C66.83,4.4,67.37,1.78,71,1.78s4.31,2.61,8,2.74c4.05.15,5-4.12,9-4,3.82.14,4.41,4.18,7.9,4s5.16-4.52,8.33-4a4.89,4.89,0,0,1,2.83,1.85"/></g></g></svg>