<svg xmlns="http://www.w3.org/2000/svg" viewBox="0 0 452.15 247.13"><defs><style>.cls-1{fill:none;stroke:#fff;stroke-miterlimit:10;stroke-width:2px;}.cls-2,.cls-3,.cls-7{fill:#fff;}.cls-3{font-size:30.35px;}.cls-3,.cls-7{font-family:BlendaScript, Blenda Script;}.cls-4{letter-spacing:0.02em;}.cls-5{letter-spacing:0.01em;}.cls-6{letter-spacing:0em;}.cls-7{font-size:38.45px;letter-spacing:0.02em;}.cls-8{letter-spacing:0.05em;}.cls-9{letter-spacing:0.04em;}.cls-10{letter-spacing:0em;}.cls-11{letter-spacing:0.05em;}</style></defs><g id="Layer_2" data-name="Layer 2"><g id="Layer_1-2" data-name="Layer 1"><path class="cls-1" d="M107.15,59S87.85,33.11,64,46.31,42.67,82.36,42.67,82.36-4.55,95.05,1.54,136.18s52.53,48.74,52.53,48.74-6.33,35,23.12,44.67,44.68-13.2,44.68-13.2,21.83,37.07,57.88,28.44,42.65-49.76,42.65-49.76,49.75,22.34,74.12-24.37-34-72.1-34-72.1,1-20.3-12.7-35.54-39.6-9.64-39.6-9.64S194,12.8,153.86,18.89,107.15,59,107.15,59Z"/><path class="cls-2" d="M219.93,14.29s-6.76-9.08-15.14-4.45-7.48,12.64-7.48,12.64-16.56,4.45-14.42,18.88,18.43,17.1,18.43,17.1-2.22,12.29,8.11,15.67A13.56,13.56,0,0,0,225.1,69.5s7.66,13,20.3,10,15-17.46,15-17.46,17.46,7.84,26-8.55-11.94-25.29-11.94-25.29.36-7.12-4.45-12.47-13.89-3.38-13.89-3.38S250.39-1.92,236.32.22,219.93,14.29,219.93,14.29Z"/><path class="cls-2" d="M354.38,50.8S350.05,45,344.69,48a8.64,8.64,0,0,0-4.79,8.1s-10.6,2.85-9.23,12.08,11.8,10.94,11.8,10.94-1.43,7.86,5.18,10a8.67,8.67,0,0,0,10-3s4.91,8.32,13,6.38,9.57-11.17,9.57-11.17,11.17,5,16.64-5.47-7.63-16.19-7.63-16.19a12.21,12.21,0,0,0-2.85-8c-3.08-3.42-8.89-2.17-8.89-2.17s-3.65-9.12-12.65-7.75S354.38,50.8,354.38,50.8Z"/><path class="cls-2" d="M420.13,112.85s-3.16-4.24-7.07-2.08a6.3,6.3,0,0,0-3.5,5.91s-7.74,2.08-6.74,8.82,8.61,8,8.61,8-1,5.74,3.79,7.32a6.32,6.32,0,0,0,7.32-2.16s3.58,6.08,9.49,4.66,7-8.15,7-8.15,8.16,3.66,12.15-4-5.58-11.82-5.58-11.82a8.85,8.85,0,0,0-2.08-5.82c-2.24-2.5-6.49-1.58-6.49-1.58s-2.66-6.66-9.23-5.66A8.85,8.85,0,0,0,420.13,112.85Z"/><text class="cls-3" transform="translate(88.9 114.69)">H<tspan class="cls-4" x="24.49" y="0">e</tspan><tspan class="cls-5" x="36" y="0">l</tspan><tspan class="cls-6" x="43.98" y="0">lo the</tspan></text><text class="cls-7" transform="translate(41.72 161.95)">K<tspan class="cls-8" x="31.26" y="0">ID</tspan><tspan class="cls-9" x="84.28" y="0">S</tspan><tspan class="cls-10" x="106.93" y="0">Z</tspan><tspan class="cls-11" x="130.77" y="0">ONE</tspan></text></g></g></svg>