<svg xmlns="http://www.w3.org/2000/svg" viewBox="0 0 1311.01 204.12"><defs><style>.cls-1{fill:none;stroke:#000;stroke-miterlimit:10;stroke-dasharray:12;}.cls-1,.cls-2{opacity:0.1;}</style></defs><g id="Layer_2" data-name="Layer 2"><g id="Layer_1-2" data-name="Layer 1"><path class="cls-1" d="M1310.69,104.21c-23.1,19-134,105.84-293.08,92.33C1001,195.13,807.82,185.78,777.89,90.66c-9.28-29.49-3.27-68.4,18.64-83,31.14-20.77,97.52,5.5,118.59,55.9,18.15,43.44-.86,96.38-40.66,122.83-37.9,25.17-89.17,22.68-126.21-6.78"/><polygon class="cls-2" points="746.11 176.91 758.9 179.42 750.33 189.23 746.11 176.91"/><path class="cls-1" d="M.32,104.21c23.1,19,134,105.84,293.08,92.33,16.65-1.41,209.79-10.76,239.72-105.88,9.27-29.49,3.27-68.4-18.64-83-31.14-20.77-97.52,5.5-118.59,55.9-18.15,43.44.85,96.38,40.66,122.83,37.9,25.17,89.17,22.68,126.21-6.78"/><polygon class="cls-2" points="564.9 176.91 552.11 179.42 560.68 189.23 564.9 176.91"/></g></g></svg>