<svg xmlns="http://www.w3.org/2000/svg" viewBox="0 0 524.19 7.02"><defs><style>.cls-1{fill:none;stroke:#fff;stroke-miterlimit:10;}</style></defs><g id="Layer_2" data-name="Layer 2"><g id="Layer_1-2" data-name="Layer 1"><path class="cls-1" d="M.34,6.41C4.48,2.53,7.62.15,9.94.54c4.07.68,5,5.76,8.75,5.87,4.15.11,4.13-6.22,8.08-5.87,3.56.31,5.31,5.6,8.72,5.87C39.61,6.73,39.21.67,43.6.54c3.58-.1,5.12,5.67,8.68,5.87s4.24-6,8.15-5.87c3.46.09,5,5.56,8.65,5.87,4.09.35,4-6.15,8.17-5.87,3.68.25,5.1,5.74,8.63,5.87C90,6.56,90.08.34,94.08.54c3.67.18,4.85,5.68,8.59,5.87,3.93.2,4.39-6.22,8.24-5.87,3.25.3,5.28,5.53,8.56,5.87,3.92.41,4.18-6.08,8.27-5.87,3.77.19,4.89,5.8,8.52,5.87,3.94.08,4.24-5.93,8.31-5.87,3.4,0,5,5.8,8.49,5.87,4.13.09,4.65-6.2,8.34-5.87,3.37.3,5,5.37,8.45,5.87C174,7,174,0,178.22.54c3.58.44,5.12,5.83,8.43,5.87,3.48,0,4.81-5.78,8.4-5.87s4.68,5.79,8.39,5.87c4.07.08,4.44-6.08,8.44-5.87,3.21.17,4.75,5.33,8.36,5.87,4.25.64,4.2-6.44,8.47-5.87,3.81.52,4.91,5.78,8.32,5.87,3.79.1,4.46-5.74,8.51-5.87,3.73-.12,4.28,5.79,8.29,5.87,4.22.08,4.6-6.24,8.53-5.87,3.42.33,5,5.69,8.26,5.87,3.84.21,4.61-5.77,8.57-5.87,4.24-.11,4.17,6.2,8.23,5.87,3.44-.28,5.24-5.82,8.6-5.87s4.68,5.66,8.19,5.87c4.3.26,4.87-6.46,8.64-5.87,2.89.45,5.08,5,8.16,5.87,3.58,1.07,4.43-6.09,8.67-5.87,3.82.2,4.37,5.74,8.12,5.87,4.09.13,4.79-6.17,8.71-5.87,3.44.27,4.76,5.8,8.09,5.87S359.79.6,363.33.54c3.75-.07,4.23,5.74,8.06,5.87,4.19.14,4.87-6.26,8.77-5.87,3.32.33,4.63,5.54,8,5.87,3.7.36,4.85-6.08,8.8-5.87,3.54.19,4.47,5.72,8,5.87,3.81.15,5-6,8.84-5.87,3.52.14,4.43,5.7,8,5.87,3.88.19,4.82-5.89,8.87-5.87,3.81,0,4.06,5.84,7.92,5.87s5-5.94,8.91-5.87,4.16,5.87,7.89,5.87c4.09,0,5.32-6.2,8.93-5.87,3.33.31,4.49,5.49,7.86,5.87,3.82.42,4.93-6.18,9-5.87,3.42.27,4.3,5.53,7.83,5.87,4,.38,5-6.21,9-5.87,3.64.3,4.35,5.73,7.79,5.87,3.65.14,4.84-5.23,9-5.87,2.05-.31,5,1.5,9,5.87"/></g></g></svg>